<svg aria-hidden="true" style="position: absolute; width: 0; height: 0; overflow: hidden;" version="1.1" xmlns="http://www.w3.org/2000/svg" xmlns:xlink="http://www.w3.org/1999/xlink">
<defs>
<symbol id="icon-good" viewBox="0 0 32 32">
<path fill="#009" style="fill: var(--color1, #009)" d="M29.188 1h-26.375c-1.551 0-2.813 1.262-2.813 2.813v18.75c0 1.551 1.262 2.812 2.813 2.812h2.875v4.688c0 0.379 0.228 0.721 0.579 0.866s0.754 0.065 1.022-0.203l5.35-5.35h16.549c1.551 0 2.812-1.262 2.812-2.812v-18.75c0-1.551-1.262-2.813-2.812-2.813zM30.125 22.563c0 0.517-0.421 0.938-0.937 0.938h-16.938c-0.249 0-0.487 0.099-0.663 0.275l-4.025 4.024v-3.362c0-0.518-0.42-0.937-0.937-0.937h-3.813c-0.517 0-0.938-0.421-0.938-0.938v-18.75c0-0.517 0.421-0.938 0.938-0.938h26.375c0.517 0 0.937 0.421 0.937 0.938v18.75z"></path>
<path fill="#009" style="fill: var(--color1, #009)" d="M16 4.75c-4.652 0-8.438 3.785-8.438 8.438s3.785 8.438 8.438 8.438 8.438-3.785 8.438-8.438c0-4.652-3.785-8.438-8.438-8.438zM16 19.75c-3.619 0-6.563-2.944-6.563-6.563s2.944-6.563 6.563-6.563c3.619 0 6.563 2.944 6.563 6.563s-2.944 6.563-6.563 6.563z"></path>
<path fill="#009" style="fill: var(--color1, #009)" d="M19.315 15.176c-0.366-0.366-0.96-0.366-1.326 0-0.53 0.53-1.237 0.822-1.989 0.822s-1.459-0.292-1.989-0.822c-0.366-0.366-0.96-0.366-1.326 0s-0.366 0.96 0 1.326c0.884 0.884 2.062 1.371 3.315 1.371s2.43-0.487 3.315-1.371c0.366-0.366 0.366-0.96 0-1.326z"></path>
<path fill="#009" style="fill: var(--color1, #009)" d="M13.188 12.25c0.518 0 0.937-0.42 0.937-0.937s-0.42-0.938-0.937-0.938c-0.518 0-0.938 0.42-0.938 0.938s0.42 0.937 0.938 0.937z"></path>
<path fill="#009" style="fill: var(--color1, #009)" d="M18.812 12.25c0.518 0 0.938-0.42 0.938-0.937s-0.42-0.938-0.938-0.938c-0.518 0-0.937 0.42-0.937 0.938s0.42 0.937 0.937 0.937z"></path>
</symbol>
<symbol id="icon-megaphone" viewBox="0 0 32 32">
<path fill="#009" style="fill: var(--color1, #009)" d="M8.5 10.344c-0.006 0-0.013 0-0.019 0h-3.75c-0.518 0.010-0.929 0.438-0.919 0.956 0.010 0.511 0.428 0.919 0.937 0.919 0.006 0 0.013-0 0.019-0h3.75c0.518-0.010 0.929-0.438 0.919-0.956-0.010-0.511-0.428-0.919-0.937-0.919z"></path>
<path fill="#009" style="fill: var(--color1, #009)" d="M8.5 14.094c-0.006 0-0.013 0-0.019 0h-3.75c-0.518 0.010-0.929 0.438-0.919 0.956 0.010 0.511 0.428 0.919 0.937 0.919 0.006 0 0.013-0 0.019-0h3.75c0.518-0.010 0.929-0.438 0.919-0.956-0.010-0.511-0.428-0.919-0.937-0.919z"></path>
<path fill="#009" style="fill: var(--color1, #009)" d="M28.25 8.563v-4.782c0-1.551-1.262-2.813-2.812-2.813-1.468 0-2.677 1.131-2.801 2.568-1.84 0.935-6.049 3.057-10.306 3.057-0.923 0-6.745 0-7.643 0-2.585 0-4.688 2.103-4.688 4.688v3.75c0 2.585 2.103 4.688 4.688 4.688h1v8.5c0 1.551 1.262 2.812 2.812 2.812s2.813-1.262 2.813-2.812v-4.75h0.937c1.551 0 2.813-1.262 2.813-2.812v-0.67c3.211 0.598 6.113 2.051 7.574 2.791 0.125 1.436 1.333 2.567 2.801 2.567 1.551 0 2.812-1.262 2.812-2.812v-4.782c2.137-0.436 3.75-2.329 3.75-4.593s-1.613-4.158-3.75-4.593zM9.438 28.219c0 0.517-0.421 0.937-0.938 0.937s-0.937-0.421-0.937-0.937v-8.5h1.875c0 0.439 0 8.113 0 8.5zM4.688 17.844c-1.551 0-2.813-1.262-2.813-2.813v-3.75c0-1.551 1.262-2.813 2.813-2.813h6.625v9.375h-6.625zM13.188 20.656c0 0.517-0.421 0.937-0.938 0.937h-0.937v-1.875c0.928 0 1.284-0.010 1.875 0.028v0.909zM22.625 20.675c-2.099-1.028-5.669-2.592-9.438-2.806v-9.425c3.794-0.214 7.355-1.78 9.438-2.804v15.035zM26.375 22.531c0 0.517-0.421 0.937-0.937 0.937s-0.938-0.421-0.938-0.937v-18.75c0-0.517 0.421-0.938 0.938-0.938s0.937 0.421 0.937 0.938c0 0.703 0 18.109 0 18.75zM28.25 15.808v-5.304c1.091 0.387 1.875 1.43 1.875 2.652s-0.784 2.265-1.875 2.652z"></path>
</symbol>
<symbol id="icon-chart" viewBox="0 0 32 32">
<path fill="#339" style="fill: var(--color2, #339)" d="M17.925 31.312c-7.381 0-13.387-6.006-13.387-13.387 0-0.706 0.569-1.275 1.275-1.275h10.831v-10.831c0-0.706 0.569-1.275 1.275-1.275 7.381 0 13.387 6.006 13.387 13.387 0.006 7.375-6 13.381-13.381 13.381zM7.169 19.2c0.631 5.375 5.219 9.556 10.756 9.556 5.975 0 10.831-4.863 10.831-10.831 0-5.544-4.181-10.125-9.556-10.756v10.756c0 0.706-0.569 1.275-1.275 1.275h-10.756z"></path>
<path fill="#339" style="fill: var(--color2, #339)" d="M14.075 15.35h-12.113c-0.706 0-1.275-0.569-1.275-1.275 0-7.381 6.006-13.387 13.387-13.387 0.706 0 1.275 0.569 1.275 1.275v12.113c0 0.706-0.569 1.275-1.275 1.275zM3.313 12.8h9.481v-9.488c-4.95 0.587-8.894 4.531-9.481 9.488z"></path>
</symbol>
<symbol id="icon-rating" viewBox="0 0 32 32">
<path fill="#009" style="fill: var(--color1, #009)" d="M27.25 17c-0.366 0-0.715 0.070-1.036 0.198-0.326-1.193-1.419-2.073-2.714-2.073-0.72 0-1.377 0.272-1.875 0.718-0.498-0.446-1.155-0.718-1.875-0.718-0.329 0-0.644 0.057-0.938 0.161v-2.973c0-1.551-1.262-2.812-2.812-2.812s-2.812 1.262-2.812 2.812v9.148l-0.436-0.436c-1.099-1.099-2.878-1.099-3.977 0s-1.099 2.878 0 3.977l6.724 6.724c0.176 0.176 0.414 0.275 0.663 0.275h11.089c0.388 0 0.735-0.239 0.875-0.6 1.286-3.335 1.938-6.839 1.938-10.413v-1.174c0-1.551-1.262-2.812-2.813-2.812zM28.188 20.987c-0 3.129-0.534 6.2-1.589 9.138h-10.049l-6.449-6.449c-0.366-0.366-0.366-0.959 0-1.326s0.959-0.366 1.326 0l2.036 2.036c0.268 0.268 0.672 0.348 1.022 0.203s0.579-0.487 0.579-0.866v-11.411c0-0.517 0.421-0.938 0.937-0.938s0.937 0.421 0.937 0.938v7.5c0 0.518 0.42 0.938 0.938 0.938s0.937-0.42 0.937-0.938v-1.875c0-0.517 0.421-0.937 0.938-0.937s0.937 0.421 0.937 0.937v1.875c0 0.518 0.42 0.938 0.938 0.938s0.937-0.42 0.937-0.938v-1.875c0-0.517 0.421-0.937 0.937-0.937s0.938 0.421 0.938 0.937v1.875c0 0.518 0.42 0.938 0.937 0.938s0.938-0.42 0.938-0.938c0-0.517 0.421-0.937 0.937-0.937s0.938 0.421 0.938 0.937v1.174z"></path>
<path fill="#009" style="fill: var(--color1, #009)" d="M9.33 3.312c-0.11-0.342-0.405-0.592-0.761-0.642l-2.107-0.299-0.938-1.856c-0.16-0.316-0.483-0.515-0.837-0.515s-0.677 0.199-0.837 0.515l-0.938 1.856-2.107 0.299c-0.356 0.050-0.652 0.3-0.761 0.642s-0.014 0.717 0.246 0.965l1.511 1.438-0.356 2.025c-0.062 0.35 0.081 0.706 0.367 0.917s0.668 0.242 0.984 0.079l1.889-0.97 1.89 0.97c0.317 0.162 0.698 0.132 0.984-0.079s0.429-0.566 0.367-0.917l-0.356-2.025 1.511-1.438c0.26-0.248 0.356-0.623 0.247-0.965zM5.916 4.703c-0.227 0.216-0.331 0.532-0.277 0.841l0.116 0.662-0.64-0.329c-0.269-0.138-0.588-0.138-0.856 0l-0.64 0.328 0.116-0.662c0.054-0.309-0.050-0.625-0.277-0.841l-0.472-0.449 0.674-0.096c0.303-0.043 0.567-0.232 0.705-0.505l0.322-0.637 0.322 0.637c0.138 0.274 0.402 0.462 0.705 0.505l0.674 0.096-0.472 0.449z"></path>
<path fill="#009" style="fill: var(--color1, #009)" d="M20.643 3.312c-0.11-0.342-0.405-0.592-0.761-0.642l-2.107-0.299-0.938-1.856c-0.16-0.316-0.483-0.515-0.837-0.515s-0.677 0.199-0.837 0.515l-0.938 1.856-2.107 0.299c-0.356 0.050-0.652 0.3-0.761 0.642s-0.014 0.717 0.246 0.965l1.511 1.438-0.356 2.025c-0.062 0.35 0.081 0.706 0.367 0.917s0.668 0.242 0.984 0.079l1.89-0.97 1.889 0.97c0.317 0.162 0.698 0.132 0.984-0.079s0.429-0.566 0.367-0.917l-0.356-2.025 1.511-1.438c0.26-0.248 0.356-0.623 0.246-0.965zM17.229 4.703c-0.227 0.216-0.331 0.532-0.277 0.841l0.116 0.662-0.64-0.328c-0.269-0.138-0.588-0.138-0.856 0l-0.64 0.328 0.116-0.662c0.054-0.309-0.050-0.625-0.277-0.841l-0.472-0.449 0.674-0.096c0.303-0.043 0.567-0.232 0.705-0.505l0.322-0.637 0.322 0.637c0.138 0.274 0.401 0.462 0.705 0.505l0.674 0.096-0.472 0.449z"></path>
<path fill="#009" style="fill: var(--color1, #009)" d="M31.955 3.312c-0.11-0.342-0.405-0.592-0.761-0.642l-2.107-0.299-0.938-1.856c-0.16-0.316-0.483-0.515-0.837-0.515s-0.677 0.199-0.837 0.515l-0.938 1.856-2.107 0.299c-0.356 0.050-0.652 0.3-0.761 0.642s-0.014 0.717 0.246 0.965l1.511 1.438-0.356 2.025c-0.062 0.35 0.081 0.706 0.367 0.917s0.668 0.242 0.984 0.079l1.89-0.97 1.89 0.97c0.317 0.162 0.698 0.132 0.984-0.079s0.429-0.566 0.367-0.917l-0.356-2.025 1.511-1.438c0.26-0.248 0.356-0.623 0.246-0.965zM28.541 4.703c-0.227 0.216-0.331 0.532-0.277 0.841l0.116 0.662-0.64-0.329c-0.269-0.138-0.588-0.138-0.856 0l-0.64 0.328 0.116-0.662c0.054-0.309-0.050-0.625-0.277-0.841l-0.472-0.449 0.674-0.096c0.303-0.043 0.567-0.232 0.705-0.505l0.322-0.637 0.322 0.637c0.138 0.274 0.401 0.462 0.705 0.505l0.674 0.096-0.472 0.449z"></path>
</symbol>
<symbol id="icon-scale" viewBox="0 0 32 32">
<path fill="#339" style="fill: var(--color2, #339)" d="M14.277 15.973c-0.11-0.061-0.214-0.21-9.202-7.127l0.356 2.317c0.114 0.728-0.338 1.429-1.005 1.538-0.763 0.132-1.347-0.519-1.404-1.106l-0.903-5.939c-0.056-0.351 0.025-0.714 0.213-1.003s0.475-0.487 0.798-0.54l5.442-0.957c0.668-0.115 1.296 0.379 1.402 1.112s-0.342 1.421-1.010 1.536l-2.916 0.514c8.905 6.936 9.179 7.182 9.289 7.243 0.609 0.321 0.866 1.125 0.569 1.791-0.252 0.569-0.959 0.991-1.631 0.621z"></path>
<path fill="#339" style="fill: var(--color2, #339)" d="M15.737 18.536c-0.084 0.099-0.243 0.168-8.759 7.763l2.143 0.244c0.674 0.075 1.174 0.736 1.092 1.466-0.087 0.837-0.819 1.276-1.352 1.179l-5.493-0.637c-0.325-0.034-0.625-0.216-0.83-0.492s-0.304-0.628-0.264-0.983l0.607-5.972c0.076-0.732 0.681-1.26 1.358-1.176s1.165 0.739 1.089 1.471l-0.324 3.199c8.511-7.502 8.801-7.723 8.884-7.823 0.446-0.554 1.226-0.609 1.736-0.119 0.436 0.417 0.62 1.272 0.113 1.879z"></path>
<path fill="#339" style="fill: var(--color2, #339)" d="M16.402 14.050c0.075-0.107 0.229-0.191 8.097-8.574l-2.155-0.037c-0.678-0.010-1.229-0.621-1.206-1.355 0.019-0.842 0.712-1.349 1.252-1.304l5.523 0.107c0.327 0.003 0.64 0.156 0.866 0.41s0.353 0.597 0.343 0.954l-0.121 6.007c-0.017 0.737-0.576 1.321-1.257 1.302s-1.221-0.624-1.204-1.361l0.064-3.218c-7.87 8.29-8.142 8.539-8.217 8.646-0.4 0.594-1.172 0.724-1.719 0.286-0.468-0.374-0.721-1.207-0.265-1.861z"></path>
<path fill="#339" style="fill: var(--color2, #339)" d="M18.078 16.592c0.115 0.049 0.232 0.186 9.808 6.092l-0.566-2.266c-0.18-0.712 0.206-1.459 0.859-1.639 0.747-0.214 1.387 0.37 1.498 0.948l1.442 5.811c0.088 0.343 0.041 0.713-0.12 1.021s-0.428 0.536-0.745 0.624l-5.328 1.543c-0.654 0.187-1.324-0.236-1.497-0.954s0.211-1.451 0.865-1.639l2.854-0.828c-9.495-5.934-9.79-6.149-9.905-6.198-0.635-0.253-0.964-1.026-0.73-1.72 0.199-0.594 0.864-1.090 1.566-0.795z"></path>
</symbol>
<symbol id="icon-link" viewBox="0 0 32 32">
<path fill="#339" style="fill: var(--color2, #339)" d="M4 28.801h4.8v-17.76h-4.8v17.76zM6.4 3.201c-1.6 0-2.88 1.28-2.88 2.88s1.28 2.88 2.88 2.88c1.6 0 2.88-1.28 2.88-2.88s-1.28-2.88-2.88-2.88zM16.96 13.761v-2.72h-4.8v17.76h4.8v-9.12c0-5.12 6.56-5.44 6.56 0v9.12h4.8v-10.88c0-8.64-9.12-8.32-11.36-4.16z"></path>
</symbol>
<symbol id="icon-instagram" viewBox="0 0 32 32">
<path fill="#339" style="fill: var(--color2, #339)" d="M9.953 1.421c1.564-0.072 2.063-0.088 6.047-0.088s4.483 0.017 6.045 0.088c1.563 0.071 2.629 0.32 3.563 0.681 0.977 0.369 1.864 0.947 2.597 1.693 0.747 0.732 1.323 1.617 1.691 2.596 0.363 0.933 0.611 2 0.683 3.56 0.072 1.567 0.088 2.065 0.088 6.048 0 3.984-0.017 4.483-0.088 6.047-0.071 1.56-0.32 2.627-0.683 3.56-0.368 0.979-0.945 1.866-1.691 2.599-0.733 0.747-1.62 1.323-2.597 1.691-0.933 0.363-2 0.611-3.56 0.683-1.565 0.072-2.064 0.088-6.048 0.088s-4.483-0.017-6.047-0.088c-1.56-0.071-2.627-0.32-3.56-0.683-0.979-0.368-1.866-0.945-2.599-1.691-0.746-0.732-1.324-1.619-1.692-2.597-0.361-0.933-0.609-2-0.681-3.56-0.072-1.567-0.088-2.065-0.088-6.048 0-3.984 0.017-4.483 0.088-6.045s0.32-2.629 0.681-3.563c0.369-0.979 0.947-1.865 1.693-2.597 0.732-0.746 1.618-1.323 2.596-1.692 0.933-0.361 2-0.609 3.56-0.681h0.001zM21.927 4.061c-1.547-0.071-2.011-0.085-5.927-0.085s-4.38 0.015-5.927 0.085c-1.431 0.065-2.207 0.304-2.724 0.505-0.684 0.267-1.173 0.583-1.687 1.096-0.487 0.473-0.861 1.050-1.096 1.687-0.201 0.517-0.44 1.293-0.505 2.724-0.071 1.547-0.085 2.011-0.085 5.927s0.015 4.38 0.085 5.927c0.065 1.431 0.304 2.207 0.505 2.724 0.235 0.636 0.609 1.213 1.096 1.687 0.473 0.487 1.051 0.861 1.687 1.096 0.517 0.201 1.293 0.44 2.724 0.505 1.547 0.071 2.009 0.085 5.927 0.085s4.38-0.015 5.927-0.085c1.431-0.065 2.207-0.304 2.724-0.505 0.684-0.267 1.173-0.583 1.687-1.096 0.487-0.473 0.861-1.051 1.096-1.687 0.201-0.517 0.44-1.293 0.505-2.724 0.071-1.547 0.085-2.011 0.085-5.927s-0.015-4.38-0.085-5.927c-0.065-1.431-0.304-2.207-0.505-2.724-0.267-0.684-0.583-1.173-1.096-1.687-0.473-0.487-1.050-0.861-1.687-1.096-0.517-0.201-1.293-0.44-2.724-0.505zM14.127 20.521c1.046 0.435 2.211 0.494 3.296 0.166s2.022-1.022 2.652-1.965c0.63-0.942 0.913-2.074 0.801-3.201s-0.612-2.181-1.415-2.981c-0.512-0.511-1.13-0.903-1.812-1.146s-1.408-0.333-2.128-0.262-1.415 0.301-2.036 0.673c-0.62 0.372-1.151 0.877-1.553 1.478s-0.665 1.285-0.772 2c-0.106 0.715-0.053 1.446 0.157 2.138s0.571 1.329 1.056 1.866c0.486 0.536 1.084 0.958 1.752 1.235zM10.669 10.669c0.7-0.7 1.531-1.255 2.446-1.634s1.895-0.574 2.885-0.574c0.99 0 1.97 0.195 2.885 0.574s1.746 0.934 2.446 1.634c0.7 0.7 1.255 1.531 1.634 2.446s0.574 1.895 0.574 2.885-0.195 1.97-0.574 2.885c-0.379 0.915-0.934 1.746-1.634 2.446-1.414 1.414-3.331 2.208-5.331 2.208s-3.917-0.794-5.331-2.208c-1.414-1.414-2.208-3.331-2.208-5.331s0.794-3.917 2.208-5.331zM25.211 9.584c0.173-0.164 0.312-0.36 0.408-0.579s0.147-0.454 0.151-0.692c0.003-0.238-0.041-0.475-0.131-0.696s-0.223-0.422-0.391-0.59c-0.169-0.169-0.369-0.302-0.59-0.391s-0.458-0.134-0.696-0.131c-0.239 0.003-0.474 0.055-0.692 0.151s-0.415 0.235-0.579 0.408c-0.318 0.337-0.493 0.785-0.486 1.249s0.194 0.907 0.522 1.235c0.328 0.328 0.771 0.515 1.235 0.522s0.912-0.167 1.249-0.486z"></path>
</symbol>
<symbol id="icon-fs" viewBox="0 0 32 32">
<path fill="#339" style="fill: var(--color2, #339)" d="M23.446 18l0.889-5.791h-5.557v-3.758c0-1.584 0.776-3.129 3.265-3.129h2.526v-4.93c0 0-2.292-0.391-4.484-0.391-4.576 0-7.567 2.774-7.567 7.795v4.414h-5.087v5.791h5.087v14h6.26v-14l4.668-0.001z"></path>
</symbol>
<symbol id="icon-star" viewBox="0 0 32 32">
<path fill="none" stroke="#339" style="stroke: var(--color2, #339)" stroke-linejoin="miter" stroke-linecap="butt" stroke-miterlimit="4" stroke-width="2.6667" d="M30.667 16c0 8.1-6.567 14.667-14.667 14.667s-14.667-6.566-14.667-14.667c0-8.1 6.566-14.667 14.667-14.667s14.667 6.566 14.667 14.667z"></path>
<path fill="none" stroke="#339" style="stroke: var(--color2, #339)" stroke-linejoin="miter" stroke-linecap="butt" stroke-miterlimit="4" stroke-width="2.6667" d="M14.24 12.506l1.6-2.973 1.6 2.973c0.346 0.643 0.966 1.094 1.685 1.224l3.322 0.603-2.333 2.44c-0.505 0.528-0.741 1.257-0.644 1.98l0.453 3.346-3.042-1.465c-0.658-0.317-1.424-0.317-2.082 0l-3.042 1.465 0.453-3.346c0.098-0.724-0.139-1.453-0.643-1.98l-2.333-2.44 3.322-0.603c0.719-0.13 1.339-0.581 1.685-1.224z"></path>
</symbol>
<symbol id="icon-stats" viewBox="0 0 32 32">
<path fill="#339" style="fill: var(--color2, #339)" d="M3.119 14.019c0.125-0.031 12.013-2.813 22.625-7.144l-0.85 2.069c-0.269 0.65 0.044 1.406 0.7 1.662 0.75 0.3 1.481-0.169 1.663-0.7l2.169-5.306c0.131-0.313 0.125-0.669-0.006-0.981s-0.381-0.563-0.7-0.688l-5.344-2.156c-0.656-0.262-1.4 0.050-1.663 0.706s0.050 1.4 0.706 1.663l2.863 1.156c-10.531 4.369-22.613 7.2-22.738 7.231-0.688 0.156-1.119 0.844-0.956 1.531 0.137 0.587 0.769 1.144 1.531 0.956z"></path>
<path fill="#339" style="fill: var(--color2, #339)" d="M29.931 28.762v-14.894c0-0.706-0.569-1.275-1.275-1.275s-1.275 0.569-1.275 1.275v14.888h-5.994v-12.981c0-0.706-0.569-1.275-1.275-1.275s-1.275 0.569-1.275 1.275v12.988h-5.994v-11.088c0-0.706-0.569-1.275-1.275-1.275s-1.275 0.569-1.275 1.275v11.088h-6v-8.55c0-0.706-0.569-1.275-1.275-1.275s-1.275 0.569-1.275 1.275v8.569c-0.6 0.106-1.056 0.625-1.056 1.256 0 0.706 0.569 1.275 1.275 1.275h28.075c0.706 0 1.275-0.569 1.275-1.275s-0.606-1.312-1.381-1.275z"></path>
</symbol>
<symbol id="icon-Vector" viewBox="0 0 32 32">
<path fill="#0c9" style="fill: var(--color3, #0c9)" d="M32 6.222l-21.333 21.333-9.778-9.778 2.507-2.507 7.271 7.253 18.827-18.809 2.507 2.507z"></path>
</symbol>
<symbol id="icon-Vector1" viewBox="0 0 32 32">
<path fill="#339" style="fill: var(--color2, #339)" opacity="0.2" d="M30.933 4.075l-3.008-3.008-11.925 11.925-11.925-11.925-3.008 3.008 11.925 11.925-11.925 11.925 3.008 3.008 11.925-11.925 11.925 11.925 3.008-3.008-11.925-11.925 11.925-11.925z"></path>
</symbol>
</defs>
</svg>
